<svg width="213" height="172" viewBox="0 0 213 172" fill="none" xmlns="http://www.w3.org/2000/svg">
<path d="M106.758 11.184V8.35145C106.758 3.75202 102.931 0.0234375 98.2103 0.0234375H9.08701C4.36632 0.0234375 0.539551 3.75202 0.539551 8.35145V158.525H212.976V19.5125C212.976 14.9131 209.149 11.1845 204.429 11.1845L106.758 11.184Z" fill="#F9C8C9"/>
<path d="M200.531 23.1836H14.9702C12.2088 23.1836 9.97021 25.4222 9.97021 28.1836V155.047C9.97021 157.809 12.2088 160.047 14.9702 160.047H200.531C203.292 160.047 205.531 157.809 205.531 155.047V28.1836C205.531 25.4222 203.292 23.1836 200.531 23.1836Z" fill="#372B2C"/>
<path d="M103.728 40.2974L100.574 48.8164H9.08652C4.36583 48.8164 0.539062 52.545 0.539062 57.1444V163.178C0.539062 167.777 4.36583 171.506 9.08652 171.506H204.428C209.149 171.506 212.976 167.777 212.976 163.178V43.1229C212.976 38.5235 209.149 34.7949 204.428 34.7949H111.768C108.166 34.7949 104.95 36.9954 103.728 40.2974Z" fill="#EA9A9C"/>
<path d="M136.996 77.3252H76.5186C74.0762 77.3252 72.7412 78.5424 72.7412 81.1026V125.198C72.7412 127.758 74.0762 128.975 76.5186 128.975H136.996C139.556 128.975 140.773 127.64 140.773 125.198V81.1104C140.773 78.6602 139.556 77.3252 136.996 77.3252ZM81.5603 125.206H79.0394C77.0055 125.206 76.5186 123.973 76.5186 122.685V117.643H81.5603V125.206ZM81.5603 113.866H76.5186V105.047H81.5603V113.866ZM81.5603 101.269H76.5186V92.4503H81.5603V101.269ZM81.5603 88.6651H76.5186V83.6234C76.5186 81.5894 77.7515 81.1026 79.0394 81.1026H81.5603V88.6651ZM128.177 125.206H85.3376V81.1104H128.177V125.206ZM136.996 122.685C136.996 123.973 136.509 125.206 134.475 125.206H131.954V117.643H136.996V122.685ZM136.996 113.866H131.954V105.047H136.996V113.866ZM136.996 101.269H131.954V92.4503H136.996V101.269ZM136.996 88.6651H131.954V81.1026H134.475C135.763 81.1026 136.996 81.5894 136.996 83.6234V88.6651ZM97.3844 115.971C97.7063 116.23 98.1069 116.379 98.5466 116.387H98.578C98.9157 116.387 99.2534 116.308 99.5675 116.135L119.287 104.953C120.213 104.434 120.528 103.272 119.994 102.369V102.361C119.837 102.023 119.577 101.725 119.224 101.521L99.5754 90.1808C99.2613 90.0002 98.9236 89.9216 98.5859 89.9295H98.5702C97.5257 89.9295 96.6776 90.7776 96.6776 91.8221V114.259C96.6226 114.659 96.7011 115.075 96.921 115.444C97.0388 115.649 97.2037 115.829 97.3844 115.971ZM100.455 95.0576L114.606 103.225L100.455 111.259V95.0576Z" fill="#D3898B"/>
</svg>
